<svg width="132" height="37" viewBox="0 0 132 37" fill="none" xmlns="http://www.w3.org/2000/svg">
<path d="M127 36.5H5C2.51472 36.5 0.5 34.4853 0.5 32V5C0.5 2.51472 2.51472 0.5 5 0.5H127.739C129.816 0.5 131.5 2.184 131.5 4.26132V15.7927V32C131.5 34.4853 129.485 36.5 127 36.5Z" fill="white" stroke="#0075FF"/>
<path d="M70.2784 24V12.3636H74.4261C75.3314 12.3636 76.0814 12.5284 76.6761 12.858C77.2708 13.1875 77.7159 13.6383 78.0114 14.2102C78.3068 14.7784 78.4545 15.4186 78.4545 16.1307C78.4545 16.8466 78.3049 17.4905 78.0057 18.0625C77.7102 18.6307 77.2633 19.0814 76.6648 19.4148C76.0701 19.7443 75.322 19.9091 74.4205 19.9091H71.5682V18.4205H74.2614C74.8333 18.4205 75.2973 18.322 75.6534 18.125C76.0095 17.9242 76.2708 17.6515 76.4375 17.3068C76.6042 16.9621 76.6875 16.5701 76.6875 16.1307C76.6875 15.6913 76.6042 15.3011 76.4375 14.9602C76.2708 14.6193 76.0076 14.3523 75.6477 14.1591C75.2917 13.9659 74.822 13.8693 74.2386 13.8693H72.0341V24H70.2784ZM84.2798 24H80.5128V12.3636H84.3991C85.5393 12.3636 86.5185 12.5966 87.3366 13.0625C88.1548 13.5246 88.7817 14.1894 89.2173 15.0568C89.6567 15.9205 89.8764 16.9564 89.8764 18.1648C89.8764 19.3769 89.6548 20.4186 89.2116 21.2898C88.7723 22.161 88.1359 22.8314 87.3026 23.3011C86.4692 23.767 85.4616 24 84.2798 24ZM82.2685 22.4659H84.1832C85.0696 22.4659 85.8063 22.2992 86.3935 21.9659C86.9806 21.6288 87.42 21.142 87.7116 20.5057C88.0033 19.8655 88.1491 19.0852 88.1491 18.1648C88.1491 17.2519 88.0033 16.4773 87.7116 15.8409C87.4238 15.2045 86.9938 14.7216 86.4219 14.392C85.8499 14.0625 85.1397 13.8977 84.2912 13.8977H82.2685V22.4659ZM92.0597 24V12.3636H99.2756V13.875H93.8153V17.4205H98.7585V18.9261H93.8153V24H92.0597Z" fill="#0075FF"/>
<path d="M33.5556 8H16.4444C15.1 8 14 9.1 14 10.4444V27.5556C14 28.9 15.1 30 16.4444 30H33.5556C34.9 30 36 28.9 36 27.5556V10.4444C36 9.1 34.9 8 33.5556 8ZM21.9444 18.3889C21.9444 19.3667 21.0889 20.2222 20.1111 20.2222H18.8889V22.6667H17.0556V15.3333H20.1111C21.0889 15.3333 21.9444 16.1889 21.9444 17.1667V18.3889ZM28.0556 20.8333C28.0556 21.8111 27.2 22.6667 26.2222 22.6667H23.1667V15.3333H26.2222C27.2 15.3333 28.0556 16.1889 28.0556 17.1667V20.8333ZM32.9444 17.1667H31.1111V18.3889H32.9444V20.2222H31.1111V22.6667H29.2778V15.3333H32.9444V17.1667ZM25 17.1667H26.2222V20.8333H25V17.1667ZM18.8889 17.1667H20.1111V18.3889H18.8889V17.1667Z" fill="#525F7F"/>
</svg>
