<svg width="132" height="37" viewBox="0 0 132 37" fill="none" xmlns="http://www.w3.org/2000/svg">
<path d="M127 36.5H5C2.51472 36.5 0.5 34.4853 0.5 32V5C0.5 2.51472 2.51472 0.5 5 0.5H127.739C129.816 0.5 131.5 2.184 131.5 4.26132V15.7927V32C131.5 34.4853 129.485 36.5 127 36.5Z" fill="white" stroke="#0075FF"/>
<path d="M16.4444 27.5556H27.4444V21.4444H33.5556V10.4444H16.4444V27.5556ZM16.4444 30C15.7722 30 15.1966 29.7609 14.7174 29.2826C14.2391 28.8034 14 28.2278 14 27.5556V10.4444C14 9.77222 14.2391 9.19656 14.7174 8.71744C15.1966 8.23915 15.7722 8 16.4444 8H33.5556C34.2278 8 34.8034 8.23915 35.2826 8.71744C35.7609 9.19656 36 9.77222 36 10.4444V22.6667L28.6667 30H16.4444ZM18.8889 21.4444V19H25V21.4444H18.8889ZM18.8889 16.5556V14.1111H31.1111V16.5556H18.8889ZM16.4444 27.5556V10.4444V27.5556Z" fill="#525F7F"/>
<path d="M50.142 27.2727V15.2727H51.8011V16.6875H51.9432C52.0417 16.5057 52.1837 16.2955 52.3693 16.0568C52.5549 15.8182 52.8125 15.6098 53.142 15.4318C53.4716 15.25 53.9072 15.1591 54.4489 15.1591C55.1534 15.1591 55.7822 15.3371 56.3352 15.6932C56.8883 16.0492 57.322 16.5625 57.6364 17.233C57.9545 17.9034 58.1136 18.7102 58.1136 19.6534C58.1136 20.5966 57.9564 21.4053 57.642 22.0795C57.3277 22.75 56.8958 23.267 56.3466 23.6307C55.7973 23.9905 55.1705 24.1705 54.4659 24.1705C53.9356 24.1705 53.5019 24.0814 53.1648 23.9034C52.8314 23.7254 52.5701 23.517 52.3807 23.2784C52.1913 23.0398 52.0455 22.8277 51.9432 22.642H51.8409V27.2727H50.142ZM51.8068 19.6364C51.8068 20.25 51.8958 20.7879 52.0739 21.25C52.2519 21.7121 52.5095 22.0739 52.8466 22.3352C53.1837 22.5928 53.5966 22.7216 54.0852 22.7216C54.5928 22.7216 55.017 22.5871 55.358 22.3182C55.6989 22.0455 55.9564 21.6761 56.1307 21.2102C56.3087 20.7443 56.3977 20.2197 56.3977 19.6364C56.3977 19.0606 56.3106 18.5436 56.1364 18.0852C55.9659 17.6269 55.7083 17.2652 55.3636 17C55.0227 16.7348 54.5966 16.6023 54.0852 16.6023C53.5928 16.6023 53.1761 16.7292 52.8352 16.983C52.4981 17.2367 52.2424 17.5909 52.0682 18.0455C51.8939 18.5 51.8068 19.0303 51.8068 19.6364ZM61.7159 12.3636V24H60.017V12.3636H61.7159ZM66.5412 24.1932C65.9882 24.1932 65.4882 24.0909 65.0412 23.8864C64.5942 23.678 64.2401 23.3769 63.9787 22.983C63.7211 22.589 63.5923 22.1061 63.5923 21.5341C63.5923 21.0417 63.687 20.6364 63.8764 20.3182C64.0658 20 64.3215 19.7481 64.6435 19.5625C64.9654 19.3769 65.3253 19.2367 65.723 19.142C66.1207 19.0473 66.526 18.9754 66.9389 18.9261C67.4616 18.8655 67.8859 18.8163 68.2116 18.7784C68.5374 18.7367 68.7741 18.6705 68.9219 18.5795C69.0696 18.4886 69.1435 18.3409 69.1435 18.1364V18.0966C69.1435 17.6004 69.0033 17.2159 68.723 16.9432C68.4465 16.6705 68.0336 16.5341 67.4844 16.5341C66.9124 16.5341 66.4616 16.661 66.1321 16.9148C65.8063 17.1648 65.581 17.4432 65.456 17.75L63.8594 17.3864C64.0488 16.8561 64.3253 16.428 64.6889 16.1023C65.0563 15.7727 65.4787 15.5341 65.956 15.3864C66.4332 15.2348 66.9351 15.1591 67.4616 15.1591C67.8101 15.1591 68.1795 15.2008 68.5696 15.2841C68.9635 15.3636 69.331 15.5114 69.6719 15.7273C70.0166 15.9432 70.2988 16.2519 70.5185 16.6534C70.7382 17.0511 70.848 17.5682 70.848 18.2045V24H69.1889V22.8068H69.1207C69.0109 23.0265 68.8461 23.2424 68.6264 23.4545C68.4067 23.6667 68.1245 23.8428 67.7798 23.983C67.4351 24.1231 67.0223 24.1932 66.5412 24.1932ZM66.9105 22.8295C67.3802 22.8295 67.7817 22.7367 68.1151 22.5511C68.4522 22.3655 68.7079 22.1231 68.8821 21.8239C69.0601 21.5208 69.1491 21.197 69.1491 20.8523V19.7273C69.0885 19.7879 68.9711 19.8447 68.7969 19.8977C68.6264 19.947 68.4313 19.9905 68.2116 20.0284C67.992 20.0625 67.7779 20.0947 67.5696 20.125C67.3613 20.1515 67.187 20.1742 67.0469 20.1932C66.7173 20.2348 66.4162 20.3049 66.1435 20.4034C65.8745 20.5019 65.6586 20.6439 65.4957 20.8295C65.3366 21.0114 65.2571 21.2538 65.2571 21.5568C65.2571 21.9773 65.4124 22.2955 65.723 22.5114C66.0336 22.7235 66.4295 22.8295 66.9105 22.8295ZM73.1108 24V15.2727H74.8097V24H73.1108ZM73.9688 13.9261C73.6733 13.9261 73.4195 13.8277 73.2074 13.6307C72.9991 13.4299 72.8949 13.1913 72.8949 12.9148C72.8949 12.6345 72.9991 12.3958 73.2074 12.1989C73.4195 11.9981 73.6733 11.8977 73.9688 11.8977C74.2642 11.8977 74.5161 11.9981 74.7244 12.1989C74.9366 12.3958 75.0426 12.6345 75.0426 12.9148C75.0426 13.1913 74.9366 13.4299 74.7244 13.6307C74.5161 13.8277 74.2642 13.9261 73.9688 13.9261ZM78.794 18.8182V24H77.0952V15.2727H78.7259V16.6932H78.8338C79.0346 16.2311 79.349 15.8598 79.777 15.5795C80.2088 15.2992 80.7524 15.1591 81.4077 15.1591C82.0024 15.1591 82.5232 15.2841 82.9702 15.5341C83.4171 15.7803 83.7637 16.1477 84.0099 16.6364C84.2562 17.125 84.3793 17.7292 84.3793 18.4489V24H82.6804V18.6534C82.6804 18.0208 82.5156 17.5265 82.1861 17.1705C81.8565 16.8106 81.4039 16.6307 80.8281 16.6307C80.4342 16.6307 80.0838 16.7159 79.777 16.8864C79.474 17.0568 79.2334 17.3068 79.0554 17.6364C78.8812 17.9621 78.794 18.3561 78.794 18.8182ZM94.9659 15.2727V16.6364H90.1989V15.2727H94.9659ZM91.4773 13.1818H93.1761V21.4375C93.1761 21.767 93.2254 22.0152 93.3239 22.1818C93.4223 22.3447 93.5492 22.4564 93.7045 22.517C93.8636 22.5739 94.036 22.6023 94.2216 22.6023C94.358 22.6023 94.4773 22.5928 94.5795 22.5739C94.6818 22.5549 94.7614 22.5398 94.8182 22.5284L95.125 23.9318C95.0265 23.9697 94.8864 24.0076 94.7045 24.0455C94.5227 24.0871 94.2955 24.1098 94.0227 24.1136C93.5758 24.1212 93.1591 24.0417 92.7727 23.875C92.3864 23.7083 92.0739 23.4508 91.8352 23.1023C91.5966 22.7538 91.4773 22.3163 91.4773 21.7898V13.1818ZM100.513 24.1761C99.6529 24.1761 98.9124 23.9924 98.2912 23.625C97.6738 23.2538 97.1965 22.733 96.8594 22.0625C96.526 21.3883 96.3594 20.5985 96.3594 19.6932C96.3594 18.7992 96.526 18.0114 96.8594 17.3295C97.1965 16.6477 97.6662 16.1155 98.2685 15.733C98.8745 15.3504 99.5829 15.1591 100.393 15.1591C100.886 15.1591 101.363 15.2405 101.825 15.4034C102.287 15.5663 102.702 15.822 103.07 16.1705C103.437 16.5189 103.727 16.9716 103.939 17.5284C104.151 18.0814 104.257 18.7538 104.257 19.5455V20.1477H97.3196V18.875H102.592C102.592 18.428 102.501 18.0322 102.32 17.6875C102.138 17.339 101.882 17.0644 101.553 16.8636C101.227 16.6629 100.844 16.5625 100.405 16.5625C99.9276 16.5625 99.5109 16.6799 99.1548 16.9148C98.8026 17.1458 98.5298 17.4489 98.3366 17.8239C98.1473 18.1951 98.0526 18.5985 98.0526 19.0341V20.0284C98.0526 20.6117 98.1548 21.108 98.3594 21.517C98.5677 21.9261 98.8575 22.2386 99.2287 22.4545C99.5999 22.6667 100.034 22.7727 100.53 22.7727C100.852 22.7727 101.145 22.7273 101.411 22.6364C101.676 22.5417 101.905 22.4015 102.098 22.2159C102.291 22.0303 102.439 21.8011 102.541 21.5284L104.149 21.8182C104.02 22.2917 103.789 22.7064 103.456 23.0625C103.126 23.4148 102.712 23.6894 102.212 23.8864C101.715 24.0795 101.149 24.1761 100.513 24.1761ZM107.28 15.2727L109.206 18.6705L111.149 15.2727H113.007L110.286 19.6364L113.03 24H111.172L109.206 20.7386L107.246 24H105.382L108.098 19.6364L105.416 15.2727H107.28ZM118.825 15.2727V16.6364H114.058V15.2727H118.825ZM115.337 13.1818H117.036V21.4375C117.036 21.767 117.085 22.0152 117.183 22.1818C117.282 22.3447 117.409 22.4564 117.564 22.517C117.723 22.5739 117.895 22.6023 118.081 22.6023C118.217 22.6023 118.337 22.5928 118.439 22.5739C118.541 22.5549 118.621 22.5398 118.678 22.5284L118.984 23.9318C118.886 23.9697 118.746 24.0076 118.564 24.0455C118.382 24.0871 118.155 24.1098 117.882 24.1136C117.435 24.1212 117.018 24.0417 116.632 23.875C116.246 23.7083 115.933 23.4508 115.695 23.1023C115.456 22.7538 115.337 22.3163 115.337 21.7898V13.1818Z" fill="#0075FF"/>
</svg>
